<svg width="32" height="25" viewBox="0 0 32 25" fill="none" xmlns="http://www.w3.org/2000/svg">
<path d="M27.6133 21.72L23.08 17.2C24.5426 15.3366 25.3363 13.0355 25.3333 10.6667C25.3333 8.557 24.7077 6.49471 23.5357 4.74059C22.3636 2.98646 20.6977 1.61929 18.7486 0.811956C16.7995 0.00462167 14.6548 -0.206614 12.5857 0.204962C10.5166 0.616537 8.61596 1.63244 7.1242 3.1242C5.63244 4.61596 4.61654 6.51658 4.20496 8.58571C3.79339 10.6548 4.00462 12.7995 4.81196 14.7486C5.61929 16.6977 6.98646 18.3636 8.74059 19.5357C10.4947 20.7077 12.557 21.3333 14.6667 21.3333C17.0355 21.3363 19.3366 20.5427 21.2 19.08L25.72 23.6133C25.844 23.7383 25.9914 23.8375 26.1539 23.9052C26.3164 23.9729 26.4907 24.0077 26.6667 24.0077C26.8427 24.0077 27.017 23.9729 27.1794 23.9052C27.3419 23.8375 27.4894 23.7383 27.6133 23.6133C27.7383 23.4894 27.8375 23.3419 27.9052 23.1794C27.9729 23.017 28.0077 22.8427 28.0077 22.6667C28.0077 22.4907 27.9729 22.3164 27.9052 22.1539C27.8375 21.9914 27.7383 21.844 27.6133 21.72ZM6.66667 10.6667C6.66667 9.08442 7.13586 7.5377 8.01491 6.22211C8.89397 4.90652 10.1434 3.88114 11.6052 3.27564C13.067 2.67013 14.6755 2.51171 16.2274 2.82039C17.7792 3.12907 19.2047 3.891 20.3235 5.00982C21.4423 6.12864 22.2043 7.5541 22.513 9.10595C22.8216 10.6578 22.6632 12.2663 22.0577 13.7281C21.4522 15.1899 20.4268 16.4394 19.1112 17.3184C17.7956 18.1975 16.2489 18.6667 14.6667 18.6667C12.5449 18.6667 10.5101 17.8238 9.00982 16.3235C7.50953 14.8232 6.66667 12.7884 6.66667 10.6667Z" fill="#007BFF"/>
</svg>
